# xmcd
#
# Track frame offsets:
# 150
# 15870
# 30692
# 46931
# 59464
# 74684
# 88666
# 100188
# 112301
# 125047
# 140252
# 154823
# 169471
# 186172
# 199477
# 213419
# 225368
# 239457
# 252745
# 268279
# 281784
# 298140
# 308673
# 322995
# 337729
# 349190
#
# Disc length: 4795 seconds
#
#
# Revision: 0
# Processed by: cddbd v1.5.2PL0 Copyright (c) Steve Scherf et al.
# Submitted via: FreeRIP 2.96 
#
DISCID=9912b91a
DTITLE=BREGA MELODY 2007
DYEAR=1900
DGENRE=BritPop
TTITLE0=AMOR VOCE
TTITLE1=SUPER POP
TTITLE2=SUPER POP 2007
TTITLE3=SOU INVENSIVEL DO POP
TTITLE4=JEITO DE OLHAR
TTITLE5=DESAFIO
TTITLE6=TICTAC
TTITLE7=LOUCA SEM VOCE
TTITLE8=APOLO
TTITLE9=MENINAS COLORIDAS
TTITLE10=MARLON BRANCO DJ LEO
TTITLE11=A PIRIKITA DO POP
TTITLE12=CUZIDO REMIX
TTITLE13=CHARQUE DO RUBI
TTITLE14=O GAVIAO
TTITLE15=O CORNO
TTITLE16=A POLLO
TTITLE17=COELINHO
TTITLE18=S.COELHO
TTITLE19=SUPER POP
TTITLE20=MEGA PRINCIPE NEGRO
TTITLE21=BREGA DO DEE JAY
TTITLE22=NA BUCHECHA
TTITLE23=GALERA DA MOTO
TTITLE24=PEGA PEGA
TTITLE25=QUERO TEU CULAO
EXTD=
EXTT0=
EXTT1=
EXTT2=
EXTT3=
EXTT4=
EXTT5=
EXTT6=
EXTT7=
EXTT8=
EXTT9=
EXTT10=
EXTT11=
EXTT12=
EXTT13=
EXTT14=
EXTT15=
EXTT16=
EXTT17=
EXTT18=
EXTT19=
EXTT20=
EXTT21=
EXTT22=
EXTT23=
EXTT24=
EXTT25=
PLAYORDER=
